<svg version="1.2" xmlns="http://www.w3.org/2000/svg" viewBox="0 0 77 77" width="77" height="77"><style>.a{fill:#3dc53c}</style><path fill-rule="evenodd" class="a" d="m60.6 70.4h-43.2c-3.3 0-6-2.7-6-6v-31.2c0-3.3 2.7-6 6-6h1.2v-1.2c0-11.3 9.2-20.4 20.4-20.4 11.3 0 20.4 9.1 20.4 20.4q0 0.6 0 1.2h1.2c3.3 0 6 2.7 6 6v31.2c0 3.3-2.7 6-6 6zm-21.5-57.6c-7.3 0-13.2 5.9-13.2 13.2v1.2h26.3v-0.1q0.1-0.5 0.1-1.1c0-7.3-5.9-13.2-13.2-13.2zm20.3 24c0-1.3-1.1-2.4-2.4-2.4h-36c-1.3 0-2.4 1.1-2.4 2.4v24c0 1.3 1.1 2.4 2.4 2.4h36c1.3 0 2.4-1.1 2.4-2.4zm-19.8 19.2h-1.2c-1.7 0-3-1.4-3-3v-8.3c0-1.7 1.3-3 3-3h1.2c1.6 0 3 1.3 3 3v8.3c0 1.6-1.4 3-3 3z"/></svg>