<svg width="512" height="512" viewBox="0 0 512 512" fill="none" xmlns="http://www.w3.org/2000/svg">
  <path d="M51.2 51.2C22.923 51.2 0 74.123 0 102.4V409.6C0 437.877 22.923 460.8 51.2 460.8H460.8C489.077 460.8 512 437.877 512 409.6V102.4C512 74.123 489.077 51.2 460.8 51.2H51.2ZM192.81 128.423C198.802 128.09 204.646 130.638 208.563 135.137L310.963 252.337C314.161 255.992 314.161 261.408 310.963 265.063L208.563 382.263C203.438 388.136 194.591 388.851 188.563 384.063C182.535 379.274 181.602 370.781 186.41 364.737L280.91 258.7L186.41 152.663C181.602 146.619 182.535 138.126 188.563 133.337C190.133 132.087 191.868 128.475 192.81 128.423ZM341.333 341.333H426.667C438.449 341.333 448 350.884 448 362.667C448 374.449 438.449 384 426.667 384H341.333C329.551 384 320 374.449 320 362.667C320 350.884 329.551 341.333 341.333 341.333Z" fill="white"/>
</svg>
